<svg width="102mm" height="102mm" version="1.1" viewBox="0 0 102 102" xmlns="http://www.w3.org/2000/svg" xmlns:osb="http://www.openswatchbook.org/uri/2009/osb"><g stroke="#000"><rect width="102" height="102" fill="none"/><rect x="31" y="61" width="10" height="10"/><rect x="81" y="1" width="10" height="10"/><rect x="41" y="51" width="10" height="10"/><rect x="91" y="61" width="10" height="10"/><rect x="1" y="21" width="10" height="10"/><rect x="1" y="51" width="10" height="10"/><rect x="91" y="1" width="10" height="10"/><rect x="21" y="21" width="10" height="10"/><rect x="81" y="21" width="10" height="10"/><rect x="61" y="41" width="10" height="10"/><rect x="11" y="31" width="10" height="10"/><rect x="31" y="11" width="10" height="10"/><rect x="11" y="21" width="10" height="10"/><rect x="51" y="71" width="10" height="10"/><rect x="81" y="51" width="10" height="10"/><rect x="1" y="61" width="10" height="10"/><rect x="71" y="51" width="10" height="10"/><rect x="81" y="11" width="10" height="10"/><rect x="11" y="1" width="10" height="10"/><rect x="51" y="31" width="10" height="10"/><rect x="41" y="11" width="10" height="10"/><rect x="61" y="71" width="10" height="10"/><rect x="1" y="71" width="10" height="10"/><rect x="51" y="1" width="10" height="10"/><rect x="31" y="71" width="10" height="10"/></g></svg>
